<svg xmlns="http://www.w3.org/2000/svg" xmlns:svg="http://www.w3.org/2000/svg" xmlns:xlink="http://www.w3.org/1999/xlink" id="svg2408" width="48" height="48" version="1.0"><defs id="defs2410"><linearGradient id="linearGradient3767"><stop id="stop3769" offset="0" stop-color="#4d4d4d" stop-opacity=".707"/><stop id="stop3771" offset="1" stop-color="#4d4d4d" stop-opacity=".252"/></linearGradient><linearGradient id="linearGradient3313"><stop id="stop3315" offset="0" stop-color="#4dbe00" stop-opacity="1"/><stop id="stop4186" offset=".672" stop-color="#13791f" stop-opacity=".65"/><stop id="stop3317" offset="1" stop-color="#060" stop-opacity="0"/></linearGradient><linearGradient id="linearGradient4327"><stop id="stop4329" offset="0" stop-color="#f0f0f0" stop-opacity="1"/><stop id="stop4331" offset="1" stop-color="#b4b4b4" stop-opacity="1"/></linearGradient><linearGradient id="linearGradient3322"><stop id="stop3324" offset="0" stop-color="#7a7a7a" stop-opacity="1"/><stop id="stop3326" offset=".203" stop-color="#f9f9f9" stop-opacity="1"/><stop id="stop3328" offset=".43" stop-color="#c9c9c9" stop-opacity="1"/><stop id="stop3330" offset="1" stop-color="#dedede" stop-opacity="0"/></linearGradient><linearGradient id="linearGradient3448"><stop id="stop3450" offset="0" stop-color="#000" stop-opacity="1"/><stop id="stop3452" offset="1" stop-color="#000" stop-opacity="0"/></linearGradient><linearGradient id="linearGradient3273"><stop id="stop3275" offset="0" stop-color="#7a7a7a" stop-opacity="1"/><stop id="stop3281" offset=".146" stop-color="#f9f9f9" stop-opacity="1"/><stop id="stop3283" offset=".373" stop-color="#c9c9c9" stop-opacity="1"/><stop id="stop3277" offset="1" stop-color="#dedede" stop-opacity="0"/></linearGradient><linearGradient id="linearGradient3220"><stop id="stop3222" offset="0" stop-color="#fff" stop-opacity="1"/><stop id="stop3224" offset="1" stop-color="#bfbfbf" stop-opacity="0"/></linearGradient><linearGradient id="ButtonShadow" x1="45.448" x2="45.448" y1="92.54" y2="7.017" gradientTransform="scale(1.0058652,0.994169)" gradientUnits="userSpaceOnUse"><stop id="stop3750" offset="0" stop-color="#000" stop-opacity="1"/><stop id="stop3752" offset="1" stop-color="#000" stop-opacity=".588"/></linearGradient><linearGradient id="linearGradient3737"><stop id="stop3739" offset="0" stop-color="#fff" stop-opacity="1"/><stop id="stop3741" offset="1" stop-color="#fff" stop-opacity="0"/></linearGradient><filter id="filter3174" color-interpolation-filters="sRGB"><feGaussianBlur id="feGaussianBlur3176" stdDeviation="1.71"/></filter><linearGradient id="linearGradient3188" x1="36.357" x2="36.357" y1="6" y2="63.893" gradientUnits="userSpaceOnUse" xlink:href="#linearGradient3737"/><linearGradient id="linearGradient3179" x1="46" x2="46" y1="6" y2="78" gradientUnits="userSpaceOnUse" xlink:href="#linearGradient4327"/><linearGradient id="linearGradient3279" x1="6" x2="32" y1="77.094" y2="77.094" gradientUnits="userSpaceOnUse" xlink:href="#linearGradient3322"/><linearGradient id="linearGradient3287" x1="6" x2="32.031" y1="77.094" y2="77.094" gradientTransform="matrix(-1,0,0,1,96.030615,0)" gradientUnits="userSpaceOnUse" xlink:href="#linearGradient3273"/><linearGradient id="linearGradient3454" x1="6" x2="45.219" y1="75.5" y2="75.5" gradientTransform="matrix(-1,0,0,1,96,-2)" gradientUnits="userSpaceOnUse" xlink:href="#linearGradient3448"/><linearGradient id="linearGradient3460" x1="48" x2="48" y1="77.094" y2="90" gradientUnits="userSpaceOnUse" xlink:href="#linearGradient3448"/><linearGradient id="linearGradient3551" x1="18.743" x2="109.193" y1="8.047" y2="68.517" gradientTransform="matrix(1,0,0,-1,0,84)" gradientUnits="userSpaceOnUse" xlink:href="#linearGradient3220"/><linearGradient id="linearGradient3781" x1="15.656" x2="46.595" y1="69.394" y2="39.821" gradientTransform="matrix(1.1165614,0,0,1.1165614,0.8046986,-5.6759082)" gradientUnits="userSpaceOnUse" xlink:href="#linearGradient3220"/><clipPath id="clipPath3785"><rect id="rect3787" width="84" height="72" x="6" y="6" fill="#fff" fill-opacity="1" fill-rule="nonzero" stroke="none" rx="6" ry="6"/></clipPath><filter id="filter3829" width="1.245" height="1.36" x="-.123" y="-.18" color-interpolation-filters="sRGB"><feGaussianBlur id="feGaussianBlur3831" stdDeviation="3.549"/></filter><radialGradient id="radialGradient4138" cx="48" cy="84" r="30" fx="48" fy="84" gradientTransform="matrix(1.0666667,0,0,0.06666667,-3.2,77.4)" gradientUnits="userSpaceOnUse" xlink:href="#linearGradient3313"/><filter id="filter4180" width="1.229" height="3.83" x="-.114" y="-1.415" color-interpolation-filters="sRGB"><feGaussianBlur id="feGaussianBlur4182" stdDeviation="3.537"/></filter><linearGradient id="linearGradient4196" x1="43.054" x2="43.054" y1="80.143" y2="82.003" gradientUnits="userSpaceOnUse" xlink:href="#linearGradient3448"/><linearGradient id="ButtonShadow-0" x1="45.448" x2="45.448" y1="92.54" y2="7.017" gradientTransform="matrix(1.0058652,0,0,0.994169,100,0)" gradientUnits="userSpaceOnUse"><stop id="stop3750-8" offset="0" stop-color="#000" stop-opacity="1"/><stop id="stop3752-5" offset="1" stop-color="#000" stop-opacity=".588"/></linearGradient><linearGradient id="linearGradient3780" x1="32.251" x2="32.251" y1="6.132" y2="90.239" gradientTransform="matrix(1.0238095,0,0,1.0119048,-1.1428571,-98.071429)" gradientUnits="userSpaceOnUse" xlink:href="#ButtonShadow-0"/><linearGradient id="linearGradient3772" x1="32.251" x2="32.251" y1="6.132" y2="90.239" gradientTransform="matrix(1.0238095,0,0,1.0119048,-1.1428571,-98.071429)" gradientUnits="userSpaceOnUse" xlink:href="#ButtonShadow-0"/><linearGradient id="linearGradient3725" x1="32.251" x2="32.251" y1="6.132" y2="90.239" gradientTransform="matrix(1.0238095,0,0,1.0119048,-1.1428571,-98.071429)" gradientUnits="userSpaceOnUse" xlink:href="#ButtonShadow-0"/><linearGradient id="linearGradient3721" x1="32.251" x2="32.251" y1="6.132" y2="90.239" gradientTransform="translate(0,-97)" gradientUnits="userSpaceOnUse" xlink:href="#ButtonShadow-0"/><linearGradient id="linearGradient2918" x1="32.251" x2="32.251" y1="6.132" y2="90.239" gradientTransform="matrix(1.0238095,0,0,1.0119048,-1.1428571,-98.071429)" gradientUnits="userSpaceOnUse" xlink:href="#ButtonShadow-0"/><linearGradient id="linearGradient3218" x1="56" x2="56" y1="76" y2="32" gradientTransform="matrix(1,0,0,0.90909091,0,-9.0909091)" gradientUnits="userSpaceOnUse" xlink:href="#linearGradient3767"/><clipPath id="clipPath3997"><path id="path3999" fill="#ff2a2a" fill-opacity="1" fill-rule="nonzero" stroke="none" d="m 16,11 c -2.216,0 -4,1.784 -4,4 l 0,52 c 0,2.216 1.784,4 4,4 l 64,0 c 2.216,0 4,-1.784 4,-4 l 0,-52 c 0,-2.216 -1.784,-4 -4,-4 l -64,0 z m 32,9 c 12.15026,0 22,8.954309 22,20 0,11.045691 -9.84974,20 -22,20 -4.00428,0 -7.76567,-0.956813 -11,-2.65625 l 3,-4.75 c 2.35563,1.240828 5.08161,1.9375 8,1.9375 8.83656,0 16,-6.498014 16,-14.53125 0,-8.033236 -7.16344,-14.53125 -16,-14.53125 -8.83656,0 -16,6.498014 -16,14.53125 l 4,0 -3.5,5.46875 -3.5,5.4375 -3.5,-5.4375 L 22,40 26,40 C 26,28.954309 35.84974,20 48,20 z m 0,7.28125 c 1.108,0 2,0.805227 2,1.8125 l 0,10.15625 6.5,5.90625 c 0.783474,0.712246 0.886572,1.7338 0.25,2.3125 l -0.53125,0.5 c -0.636572,0.5787 -1.779026,0.462245 -2.5625,-0.25 l -7.0625,-6.4375 C 46.493589,41.190196 46.3896,41.108755 46.3125,41 45.91094,40.490237 45.801394,39.892005 46,39.40625 l 0,-10.3125 c 0,-1.007273 0.892,-1.8125 2,-1.8125 z" display="inline"/></clipPath><filter id="filter4001" width="1.442" height="1.526" x="-.221" y="-.263" color-interpolation-filters="sRGB"><feGaussianBlur id="feGaussianBlur4003" stdDeviation="4.613"/></filter></defs><metadata id="metadata2413"/><g id="layer2" display="none" transform="translate(0,-48)"><rect id="rect3745" width="86" height="85" x="5" y="7" fill="url(#ButtonShadow)" fill-opacity="1" fill-rule="nonzero" stroke="none" filter="url(#filter3174)" opacity=".9" rx="6" ry="6"/></g><g id="layer7" display="inline" transform="matrix(0.52138493,0,0,0.5271105,-1.2950147,-1.6369927)"><path id="path3786" fill="url(#linearGradient2918)" fill-opacity="1" fill-rule="nonzero" stroke="none" d="m 12,-95.03125 c -5.5110903,0 -10.03125,4.52016 -10.03125,10.03125 l 0,71 c 0,5.5110902 4.5201598,10.03125 10.03125,10.03125 l 72,0 c 5.51109,0 10.03125,-4.5201597 10.03125,-10.03125 l 0,-71 c 0,-5.51109 -4.52016,-10.03125 -10.03125,-10.03125 l -72,0 z" display="inline" opacity=".08" transform="scale(1,-1)"/><path id="path3778" fill="url(#linearGradient3780)" fill-opacity="1" fill-rule="nonzero" stroke="none" d="m 12,-94.03125 c -4.971633,0 -9.03125,4.059617 -9.03125,9.03125 l 0,71 c 0,4.9716329 4.0596171,9.03125 9.03125,9.03125 l 72,0 c 4.971633,0 9.03125,-4.059617 9.03125,-9.03125 l 0,-71 c 0,-4.971633 -4.059617,-9.03125 -9.03125,-9.03125 l -72,0 z" display="inline" opacity=".1" transform="scale(1,-1)"/><path id="path3770" fill="url(#linearGradient3772)" fill-opacity="1" fill-rule="nonzero" stroke="none" d="m 12,-93 c -4.4091333,0 -8,3.590867 -8,8 l 0,71 c 0,4.4091333 3.5908667,8 8,8 l 72,0 c 4.409133,0 8,-3.5908667 8,-8 l 0,-71 c 0,-4.409133 -3.590867,-8 -8,-8 l -72,0 z" display="inline" opacity=".2" transform="scale(1,-1)"/><rect id="rect3723" width="86" height="85" x="5" y="-92" fill="url(#linearGradient3725)" fill-opacity="1" fill-rule="nonzero" stroke="none" display="inline" opacity=".3" rx="7" ry="7" transform="scale(1,-1)"/><rect id="rect3716" width="84" height="84" x="6" y="-91" fill="url(#linearGradient3721)" fill-opacity="1" fill-rule="nonzero" stroke="none" display="inline" opacity=".45" rx="6" ry="6" transform="scale(1,-1)"/></g><g id="layer1" transform="matrix(0.52138493,0,0,0.5271105,-1.2950147,-1.6369927)"><path id="rect3728" fill="url(#linearGradient3188)" fill-opacity="1" fill-rule="nonzero" stroke="none" d="M 12,6 C 8.676,6 6,8.676 6,12 l 0,2 0,68 0,2 c 0,0.334721 0.04135,0.6507 0.09375,0.96875 0.0487,0.295596 0.09704,0.596915 0.1875,0.875 0.00988,0.03038 0.020892,0.0636 0.03125,0.09375 0.098865,0.287771 0.2348802,0.547452 0.375,0.8125 0.1445918,0.273507 0.3156161,0.535615 0.5,0.78125 0.1843839,0.245635 0.3737765,0.473472 0.59375,0.6875 0.439947,0.428056 0.94291,0.814526 1.5,1.09375 0.278545,0.139612 0.5734731,0.246947 0.875,0.34375 -0.2562018,-0.100222 -0.4867109,-0.236272 -0.71875,-0.375 -0.00741,-0.0044 -0.023866,0.0045 -0.03125,0 -0.031933,-0.0193 -0.062293,-0.04251 -0.09375,-0.0625 -0.120395,-0.0767 -0.2310226,-0.163513 -0.34375,-0.25 -0.1061728,-0.0808 -0.2132809,-0.161112 -0.3125,-0.25 C 8.4783201,88.557317 8.3087904,88.373362 8.15625,88.1875 8.0486711,88.057245 7.9378561,87.922215 7.84375,87.78125 7.818661,87.74287 7.805304,87.69538 7.78125,87.65625 7.716487,87.553218 7.6510225,87.451733 7.59375,87.34375 7.4927417,87.149044 7.3880752,86.928049 7.3125,86.71875 7.30454,86.69694 7.288911,86.6782 7.28125,86.65625 7.2494249,86.5643 7.2454455,86.469419 7.21875,86.375 7.1884177,86.268382 7.1483606,86.171969 7.125,86.0625 7.0521214,85.720988 7,85.364295 7,85 L 7,83 7,15 7,13 C 7,10.218152 9.2181517,8 12,8 l 2,0 68,0 2,0 c 2.781848,0 5,2.218152 5,5 l 0,2 0,68 0,2 c 0,0.364295 -0.05212,0.720988 -0.125,1.0625 -0.04415,0.206893 -0.08838,0.397658 -0.15625,0.59375 -0.0077,0.02195 -0.0233,0.04069 -0.03125,0.0625 -0.06274,0.173739 -0.138383,0.367449 -0.21875,0.53125 -0.04158,0.0828 -0.07904,0.169954 -0.125,0.25 -0.0546,0.09721 -0.126774,0.18835 -0.1875,0.28125 -0.09411,0.140965 -0.204921,0.275995 -0.3125,0.40625 -0.143174,0.17445 -0.303141,0.346998 -0.46875,0.5 -0.01117,0.0102 -0.01998,0.02115 -0.03125,0.03125 -0.138386,0.125556 -0.285091,0.234436 -0.4375,0.34375 -0.102571,0.07315 -0.204318,0.153364 -0.3125,0.21875 -0.0074,0.0045 -0.02384,-0.0044 -0.03125,0 -0.232039,0.138728 -0.462548,0.274778 -0.71875,0.375 0.301527,-0.0968 0.596455,-0.204138 0.875,-0.34375 0.55709,-0.279224 1.060053,-0.665694 1.5,-1.09375 0.219973,-0.214028 0.409366,-0.441865 0.59375,-0.6875 0.184384,-0.245635 0.355408,-0.507743 0.5,-0.78125 0.14012,-0.265048 0.276135,-0.524729 0.375,-0.8125 0.01041,-0.03078 0.02133,-0.06274 0.03125,-0.09375 0.09046,-0.278085 0.1388,-0.579404 0.1875,-0.875 C 89.95865,84.6507 90,84.334721 90,84 l 0,-2 0,-68 0,-2 C 90,8.676 87.324,6 84,6 L 12,6 z" opacity=".5"/><path id="rect3243" fill="#cacaca" fill-opacity="1" fill-rule="nonzero" stroke="none" d="M 90,64.1875 90,84 c 0,3.324 -2.676,6 -6,6 L 12,90 C 8.676,90 6,87.324 6,84 l 0,-19.8125 84,0 z"/><path id="path3309" fill="#999" fill-opacity="1" fill-rule="nonzero" stroke="none" d="m 6,73 0,1 c 0,3.324 2.676,6 6,6 l 72,0 c 3.324,0 6,-2.676 6,-6 l 0,-1 c 0,3.324 -2.676,6 -6,6 L 12,79 C 8.676,79 6,76.324 6,73 z"/><path id="path3285" fill="url(#linearGradient3287)" fill-opacity="1" fill-rule="nonzero" stroke="none" d="m 90.030615,64.1875 0,19.8125 c 0,3.324 -2.676,6 -6,6 L 64,90 l 0,-25.8125 26.030615,0 z" opacity=".8"/><path id="path3263" fill="url(#linearGradient3279)" fill-opacity="1" fill-rule="nonzero" stroke="none" d="M 6,64.1875 6,84 c 0,3.324 2.676,6 6,6 l 20,0 0,-25.8125 -26,0 z" opacity=".8"/><path id="path3299" fill="url(#linearGradient3460)" fill-opacity="1" fill-rule="nonzero" stroke="none" d="M 90,64.1875 90,84 c 0,3.324 -2.676,6 -6,6 L 12,90 C 8.676,90 6,87.324 6,84 l 0,-19.8125 84,0 z" opacity=".2"/><path id="path3298" fill="#252525" fill-opacity="1" fill-rule="nonzero" stroke="none" d="m 6,74 0,6 c 0,3.324 2.676,6 6,6 l 72,0 c 3.324,0 6,-2.676 6,-6 l 0,-6 c 0,3.324 -2.676,6 -6,6 L 12,80 C 8.676,80 6,77.324 6,74 z"/><path id="path3304" fill="#ececec" fill-opacity="1" fill-rule="nonzero" stroke="none" d="m 6,80 0,1 c 0,3.324 2.676,6 6,6 l 72,0 c 3.324,0 6,-2.676 6,-6 l 0,-1 c 0,3.324 -2.676,6 -6,6 L 12,86 C 8.676,86 6,83.324 6,80 z"/><path id="path4132" fill="url(#linearGradient4196)" fill-opacity="1" fill-rule="nonzero" stroke="none" d="m 6,74 0,2 c 0,3.324 2.676,6 6,6 l 72,0 c 3.324,0 6,-2.676 6,-6 l 0,-2 c 0,3.324 -2.676,6 -6,6 L 12,80 C 8.676,80 6,77.324 6,74 z"/></g><g id="layer3" display="inline" transform="matrix(0.52138493,0,0,0.5271105,-1.2950147,-1.6369927)"><rect id="rect3171" width="84" height="70" x="6" y="6" fill="url(#linearGradient3179)" fill-opacity="1" fill-rule="nonzero" stroke="none" rx="6" ry="6"/><path id="rect3213" fill="url(#linearGradient3551)" fill-opacity="1" fill-rule="nonzero" stroke="none" d="M 12,76 C 8.676,76 6,73.324 6,70 L 6,12 C 6,8.676 8.676,6 12,6 l 72,0 c 3.324,0 6,2.676 6,6 l 0,58 c 0,3.324 -2.676,6 -6,6 l -72,0 z m 0,-2 72,0 c 2.781848,0 5,-2.195392 5,-4.9375 l 0,-57.125 C 89,9.195393 86.781848,6.999999 84,7 L 12,7 C 9.2181517,7 7,9.195389 7,11.9375 l 0,57.125 C 7,71.804608 9.2181517,74 12,74 z" opacity=".7"/><path id="path3443" fill="url(#linearGradient3454)" fill-opacity="1" fill-rule="nonzero" stroke="none" d="m 90,70 0,1 c 0,3.324 -2.676,6 -6,6 L 12,77 C 8.676,77 6,74.324 6,71 l 0,-1 c 0,2.984862 2.152831,5.43487 5,5.90625 C 11.326884,75.971636 11.652269,76 12,76 l 72,0 c 0.166304,0 0.337194,-0.01811 0.5,-0.03125 0.04161,-0.0041 0.08371,0.0051 0.125,0 C 84.752873,75.95584 84.874673,75.927 85,75.90625 87.847169,75.43487 90,72.984862 90,70 z" opacity=".1"/><path id="path3295" fill="url(#linearGradient3781)" fill-opacity="1" fill-rule="evenodd" stroke="none" d="M 72.785673,73.316552 C 37.497632,71.660468 32.655921,60.569503 56.214438,35.565764 29.558784,43.997531 16.947902,55.85465 7.5798689,63.939487 -2.370079,72.601777 6.9889853,83.779979 17.934257,82.851623 c 11.343001,-0.0075 45.801874,-2.097861 54.851416,-9.535071 z" clip-path="url(#clipPath3785)" filter="url(#filter3829)" opacity=".3" transform="translate(0,-2)"/></g><g id="layer5" display="inline" transform="matrix(0.52138493,0,0,0.5271105,-1.2950147,-1.6369927)"><rect id="rect3323" width="74.179" height="6" x="10.911" y="80" fill="#00e900" fill-opacity="1" fill-rule="nonzero" stroke="none" display="inline" filter="url(#filter4180)" opacity=".6" rx="6.744" ry="6"/><rect id="rect3311" width="64" height="4" x="16" y="81" fill="url(#radialGradient4138)" fill-opacity="1" fill-rule="nonzero" stroke="none" display="inline" rx="5.818" ry="4"/></g><g id="layer4" transform="matrix(0.52138493,0,0,0.5271105,-1.2950147,-1.6369927)"><path id="path4090" fill="url(#linearGradient3218)" fill-opacity="1" stroke="none" stroke-width="1.5" d="M 48,20 C 35.84974,20 26,28.954309 26,40 l -4,0 3.5,5.454545 3.5,5.454546 3.5,-5.454546 L 36,40 32,40 c 0,-8.033236 7.16344,-14.545455 16,-14.545455 8.83656,0 16,6.512219 16,14.545455 0,8.033236 -7.16344,14.545455 -16,14.545455 -2.91839,0 -5.64437,-0.7194 -8,-1.960228 l -3,4.744318 C 40.23433,59.028982 43.99572,60 48,60 60.15026,60 70,51.045691 70,40 70,28.954309 60.15026,20 48,20 z m 0,7.272727 c -1.108,0 -2,0.810909 -2,1.818182 l 0,10.3125 c -0.198606,0.485755 -0.08906,1.081146 0.3125,1.590909 0.0771,0.108755 0.181089,0.193037 0.28125,0.284091 l 7.0625,6.448864 c 0.783474,0.712245 1.925928,0.805972 2.5625,0.227272 L 56.75,47.471591 c 0.636572,-0.5787 0.533474,-1.6173 -0.25,-2.329546 L 50,39.261364 50,29.090909 c 0,-1.007273 -0.892,-1.818182 -2,-1.818182 z" color="#000" display="inline" enable-background="accumulate" overflow="visible" visibility="visible" style="marker:none"/><path id="path3973" fill="#000" fill-opacity="1" stroke="none" stroke-width="1.5" d="M 48,20 C 35.84974,20 26,28.954309 26,40 l -4,0 0.625,1 L 26,41 C 26,29.954309 35.84974,21 48,21 59.966334,21 69.708015,29.685422 70,40.5 70.0045,40.333777 70,40.167205 70,40 70,28.954309 60.15026,20 48,20 z m 0,7.28125 c -1.108,0 -2,0.805227 -2,1.8125 l 0,1 c 0,-1.007273 0.892,-1.8125 2,-1.8125 1.108,0 2,0.805227 2,1.8125 l 0,-1 c 0,-1.007273 -0.892,-1.8125 -2,-1.8125 z m 2,11.96875 0,1 6.5,5.90625 C 56.78536,46.415667 56.991771,46.691985 57.09375,47 57.31253,46.426292 57.096692,45.698695 56.5,45.15625 L 50,39.25 z m -4,0.15625 c -0.122384,0.29933 -0.107864,0.631847 0,0.96875 l 0,-0.96875 z M 32.0625,40 C 32.038024,40.329076 32,40.665282 32,41 l 3.375,0 0.625,-1 -3.9375,0 z m 31.90625,0.5 C 63.678825,48.3017 56.652465,54.53125 48,54.53125 c -2.91839,0 -5.64437,-0.696672 -8,-1.9375 l -3,4.75 c 0.159366,0.08374 0.338109,0.138579 0.5,0.21875 L 40,53.59375 c 2.35563,1.240828 5.08161,1.9375 8,1.9375 8.83656,0 16,-6.498014 16,-14.53125 0,-0.167359 -0.02508,-0.334006 -0.03125,-0.5 z" color="#000" display="inline" enable-background="accumulate" opacity=".4" overflow="visible" visibility="visible" style="marker:none"/><path color="#000" style="marker:none" id="path3995" fill="#fff" fill-opacity="1" stroke="none" stroke-width="1.5" d="m 48,18.9375 c -12.278742,0 -22.315422,8.830181 -22.9375,20 l -3.0625,0 a 1.0684716,1.0684716 0 0 0 -0.90625,1.625 l 3.5,5.46875 a 1.0684716,1.0684716 0 0 0 0,0.03125 l 3.5,5.4375 a 1.0684716,1.0684716 0 0 0 1.8125,0 l 3.5,-5.4375 a 1.0684716,1.0684716 0 0 0 0,-0.03125 l 3.5,-5.46875 A 1.0684716,1.0684716 0 0 0 36,38.9375 l -2.8125,0 c 0.581564,-6.569174 6.338841,-11.826145 13.71875,-12.3125 -1.084593,0.429411 -1.96875,1.245442 -1.96875,2.46875 l 0,10.3125 0.03125,0 c -0.163133,0.772378 -0.02043,1.580311 0.46875,2.21875 0.0086,0.0112 0.02251,0.02016 0.03125,0.03125 0.177305,0.234284 0.348269,0.35354 0.40625,0.40625 L 52.9375,48.5 c 1.123092,1.020987 2.839862,1.304668 4,0.25 l 0.53125,-0.5 c 0.571056,-0.51914 0.825417,-1.287888 0.75,-2 -0.07542,-0.712112 -0.437406,-1.363553 -1,-1.875 l -6.15625,-5.59375 0,-9.6875 c 0,-1.223308 -0.884157,-2.039339 -1.96875,-2.46875 7.782739,0.512902 13.84375,6.31035 13.84375,13.375 0,7.398111 -6.624692,13.46875 -14.9375,13.46875 -2.748365,0 -5.299174,-0.653215 -7.5,-1.8125 a 1.0684716,1.0684716 0 0 0 -1.40625,0.375 l -3,4.75 a 1.0684716,1.0684716 0 0 0 0.40625,1.5 C 39.890084,60.062526 43.825531,61.0625 48,61.0625 60.675158,61.0625 71.0625,51.680817 71.0625,40 71.0625,28.319183 60.675158,18.9375 48,18.9375 z" clip-path="url(#clipPath3997)" display="inline" enable-background="accumulate" filter="url(#filter4001)" opacity=".8" overflow="visible" visibility="visible"/></g></svg>